<?xml version="1.0" encoding="UTF-8"?>
<svg xmlns="http://www.w3.org/2000/svg" xmlns:xlink="http://www.w3.org/1999/xlink" width="600pt" height="450pt" viewBox="0 0 600 450" version="1.1">
<defs>
<g>
<symbol overflow="visible" id="zHmn1ICa0-0">
<path style="stroke:none;" d="M 0.59375 2.125 L 0.59375 -8.46875 L 6.59375 -8.46875 L 6.59375 2.125 Z M 1.265625 1.453125 L 5.9375 1.453125 L 5.9375 -7.78125 L 1.265625 -7.78125 Z M 1.265625 1.453125 "/>
</symbol>
<symbol overflow="visible" id="zHmn1ICa0-1">
<path style="stroke:none;" d="M 0.59375 -3.765625 L 3.75 -3.765625 L 3.75 -2.8125 L 0.59375 -2.8125 Z M 0.59375 -3.765625 "/>
</symbol>
<symbol overflow="visible" id="zHmn1ICa0-2">
<path style="stroke:none;" d="M 1.484375 -1 L 3.421875 -1 L 3.421875 -7.671875 L 1.3125 -7.25 L 1.3125 -8.328125 L 3.40625 -8.75 L 4.59375 -8.75 L 4.59375 -1 L 6.53125 -1 L 6.53125 0 L 1.484375 0 Z M 1.484375 -1 "/>
</symbol>
<symbol overflow="visible" id="zHmn1ICa1-0">
<path style="stroke:none;" d="M 0.59375 2.125 L 0.59375 -8.46875 L 6.59375 -8.46875 L 6.59375 2.125 Z M 1.265625 1.453125 L 5.9375 1.453125 L 5.9375 -7.78125 L 1.265625 -7.78125 Z M 1.265625 1.453125 "/>
</symbol>
<symbol overflow="visible" id="zHmn1ICa1-1">
<path style="stroke:none;" d="M 2.296875 -1 L 6.4375 -1 L 6.4375 0 L 0.875 0 L 0.875 -1 C 1.320312 -1.457031 1.929688 -2.078125 2.703125 -2.859375 C 3.484375 -3.648438 3.972656 -4.160156 4.171875 -4.390625 C 4.554688 -4.804688 4.820312 -5.160156 4.96875 -5.453125 C 5.125 -5.753906 5.203125 -6.046875 5.203125 -6.328125 C 5.203125 -6.796875 5.035156 -7.175781 4.703125 -7.46875 C 4.378906 -7.757812 3.957031 -7.90625 3.4375 -7.90625 C 3.0625 -7.90625 2.664062 -7.84375 2.25 -7.71875 C 1.84375 -7.59375 1.40625 -7.394531 0.9375 -7.125 L 0.9375 -8.328125 C 1.414062 -8.515625 1.859375 -8.65625 2.265625 -8.75 C 2.679688 -8.851562 3.0625 -8.90625 3.40625 -8.90625 C 4.3125 -8.90625 5.035156 -8.675781 5.578125 -8.21875 C 6.117188 -7.769531 6.390625 -7.164062 6.390625 -6.40625 C 6.390625 -6.050781 6.320312 -5.710938 6.1875 -5.390625 C 6.050781 -5.066406 5.804688 -4.6875 5.453125 -4.25 C 5.347656 -4.132812 5.035156 -3.804688 4.515625 -3.265625 C 3.992188 -2.722656 3.253906 -1.96875 2.296875 -1 Z M 2.296875 -1 "/>
</symbol>
<symbol overflow="visible" id="zHmn1ICa1-2">
<path style="stroke:none;" d="M 0.59375 -3.765625 L 3.75 -3.765625 L 3.75 -2.8125 L 0.59375 -2.8125 Z M 0.59375 -3.765625 "/>
</symbol>
<symbol overflow="visible" id="zHmn1ICa1-3">
<path style="stroke:none;" d="M 1.484375 -1 L 3.421875 -1 L 3.421875 -7.671875 L 1.3125 -7.25 L 1.3125 -8.328125 L 3.40625 -8.75 L 4.59375 -8.75 L 4.59375 -1 L 6.53125 -1 L 6.53125 0 L 1.484375 0 Z M 1.484375 -1 "/>
</symbol>
<symbol overflow="visible" id="zHmn1ICa2-0">
<path style="stroke:none;" d="M 0.59375 2.125 L 0.59375 -8.46875 L 6.59375 -8.46875 L 6.59375 2.125 Z M 1.265625 1.453125 L 5.9375 1.453125 L 5.9375 -7.78125 L 1.265625 -7.78125 Z M 1.265625 1.453125 "/>
</symbol>
<symbol overflow="visible" id="zHmn1ICa2-1">
<path style="stroke:none;" d="M 1.484375 -1 L 3.421875 -1 L 3.421875 -7.671875 L 1.3125 -7.25 L 1.3125 -8.328125 L 3.40625 -8.75 L 4.59375 -8.75 L 4.59375 -1 L 6.53125 -1 L 6.53125 0 L 1.484375 0 Z M 1.484375 -1 "/>
</symbol>
<symbol overflow="visible" id="zHmn1ICa3-0">
<path style="stroke:none;" d="M 0.59375 2.125 L 0.59375 -8.46875 L 6.59375 -8.46875 L 6.59375 2.125 Z M 1.265625 1.453125 L 5.9375 1.453125 L 5.9375 -7.78125 L 1.265625 -7.78125 Z M 1.265625 1.453125 "/>
</symbol>
<symbol overflow="visible" id="zHmn1ICa3-1">
<path style="stroke:none;" d="M 3.8125 -7.96875 C 3.207031 -7.96875 2.75 -7.664062 2.4375 -7.0625 C 2.132812 -6.46875 1.984375 -5.566406 1.984375 -4.359375 C 1.984375 -3.160156 2.132812 -2.257812 2.4375 -1.65625 C 2.75 -1.0625 3.207031 -0.765625 3.8125 -0.765625 C 4.425781 -0.765625 4.882812 -1.0625 5.1875 -1.65625 C 5.5 -2.257812 5.65625 -3.160156 5.65625 -4.359375 C 5.65625 -5.566406 5.5 -6.46875 5.1875 -7.0625 C 4.882812 -7.664062 4.425781 -7.96875 3.8125 -7.96875 Z M 3.8125 -8.90625 C 4.789062 -8.90625 5.539062 -8.515625 6.0625 -7.734375 C 6.582031 -6.960938 6.84375 -5.835938 6.84375 -4.359375 C 6.84375 -2.890625 6.582031 -1.765625 6.0625 -0.984375 C 5.539062 -0.210938 4.789062 0.171875 3.8125 0.171875 C 2.832031 0.171875 2.082031 -0.210938 1.5625 -0.984375 C 1.050781 -1.765625 0.796875 -2.890625 0.796875 -4.359375 C 0.796875 -5.835938 1.050781 -6.960938 1.5625 -7.734375 C 2.082031 -8.515625 2.832031 -8.90625 3.8125 -8.90625 Z M 3.8125 -8.90625 "/>
</symbol>
<symbol overflow="visible" id="zHmn1ICa4-0">
<path style="stroke:none;" d="M 0.59375 2.125 L 0.59375 -8.46875 L 6.59375 -8.46875 L 6.59375 2.125 Z M 1.265625 1.453125 L 5.9375 1.453125 L 5.9375 -7.78125 L 1.265625 -7.78125 Z M 1.265625 1.453125 "/>
</symbol>
<symbol overflow="visible" id="zHmn1ICa4-1">
<path style="stroke:none;" d="M 2.296875 -1 L 6.4375 -1 L 6.4375 0 L 0.875 0 L 0.875 -1 C 1.320312 -1.457031 1.929688 -2.078125 2.703125 -2.859375 C 3.484375 -3.648438 3.972656 -4.160156 4.171875 -4.390625 C 4.554688 -4.804688 4.820312 -5.160156 4.96875 -5.453125 C 5.125 -5.753906 5.203125 -6.046875 5.203125 -6.328125 C 5.203125 -6.796875 5.035156 -7.175781 4.703125 -7.46875 C 4.378906 -7.757812 3.957031 -7.90625 3.4375 -7.90625 C 3.0625 -7.90625 2.664062 -7.84375 2.25 -7.71875 C 1.84375 -7.59375 1.40625 -7.394531 0.9375 -7.125 L 0.9375 -8.328125 C 1.414062 -8.515625 1.859375 -8.65625 2.265625 -8.75 C 2.679688 -8.851562 3.0625 -8.90625 3.40625 -8.90625 C 4.3125 -8.90625 5.035156 -8.675781 5.578125 -8.21875 C 6.117188 -7.769531 6.390625 -7.164062 6.390625 -6.40625 C 6.390625 -6.050781 6.320312 -5.710938 6.1875 -5.390625 C 6.050781 -5.066406 5.804688 -4.6875 5.453125 -4.25 C 5.347656 -4.132812 5.035156 -3.804688 4.515625 -3.265625 C 3.992188 -2.722656 3.253906 -1.96875 2.296875 -1 Z M 2.296875 -1 "/>
</symbol>
<symbol overflow="visible" id="zHmn1ICa5-0">
<path style="stroke:none;" d="M 0.59375 2.125 L 0.59375 -8.46875 L 6.59375 -8.46875 L 6.59375 2.125 Z M 1.265625 1.453125 L 5.9375 1.453125 L 5.9375 -7.78125 L 1.265625 -7.78125 Z M 1.265625 1.453125 "/>
</symbol>
<symbol overflow="visible" id="zHmn1ICa5-1">
<path style="stroke:none;" d="M 0.59375 -3.765625 L 3.75 -3.765625 L 3.75 -2.8125 L 0.59375 -2.8125 Z M 0.59375 -3.765625 "/>
</symbol>
<symbol overflow="visible" id="zHmn1ICa6-0">
<path style="stroke:none;" d="M 0.59375 2.125 L 0.59375 -8.46875 L 6.59375 -8.46875 L 6.59375 2.125 Z M 1.265625 1.453125 L 5.9375 1.453125 L 5.9375 -7.78125 L 1.265625 -7.78125 Z M 1.265625 1.453125 "/>
</symbol>
<symbol overflow="visible" id="zHmn1ICa6-1">
<path style="stroke:none;" d="M 3.8125 -7.96875 C 3.207031 -7.96875 2.75 -7.664062 2.4375 -7.0625 C 2.132812 -6.46875 1.984375 -5.566406 1.984375 -4.359375 C 1.984375 -3.160156 2.132812 -2.257812 2.4375 -1.65625 C 2.75 -1.0625 3.207031 -0.765625 3.8125 -0.765625 C 4.425781 -0.765625 4.882812 -1.0625 5.1875 -1.65625 C 5.5 -2.257812 5.65625 -3.160156 5.65625 -4.359375 C 5.65625 -5.566406 5.5 -6.46875 5.1875 -7.0625 C 4.882812 -7.664062 4.425781 -7.96875 3.8125 -7.96875 Z M 3.8125 -8.90625 C 4.789062 -8.90625 5.539062 -8.515625 6.0625 -7.734375 C 6.582031 -6.960938 6.84375 -5.835938 6.84375 -4.359375 C 6.84375 -2.890625 6.582031 -1.765625 6.0625 -0.984375 C 5.539062 -0.210938 4.789062 0.171875 3.8125 0.171875 C 2.832031 0.171875 2.082031 -0.210938 1.5625 -0.984375 C 1.050781 -1.765625 0.796875 -2.890625 0.796875 -4.359375 C 0.796875 -5.835938 1.050781 -6.960938 1.5625 -7.734375 C 2.082031 -8.515625 2.832031 -8.90625 3.8125 -8.90625 Z M 3.8125 -8.90625 "/>
</symbol>
<symbol overflow="visible" id="zHmn1ICa7-0">
<path style="stroke:none;" d="M 0.59375 2.125 L 0.59375 -8.46875 L 6.59375 -8.46875 L 6.59375 2.125 Z M 1.265625 1.453125 L 5.9375 1.453125 L 5.9375 -7.78125 L 1.265625 -7.78125 Z M 1.265625 1.453125 "/>
</symbol>
<symbol overflow="visible" id="zHmn1ICa7-1">
<path style="stroke:none;" d="M 1.484375 -1 L 3.421875 -1 L 3.421875 -7.671875 L 1.3125 -7.25 L 1.3125 -8.328125 L 3.40625 -8.75 L 4.59375 -8.75 L 4.59375 -1 L 6.53125 -1 L 6.53125 0 L 1.484375 0 Z M 1.484375 -1 "/>
</symbol>
<symbol overflow="visible" id="zHmn1ICa7-2">
<path style="stroke:none;" d="M 2.296875 -1 L 6.4375 -1 L 6.4375 0 L 0.875 0 L 0.875 -1 C 1.320312 -1.457031 1.929688 -2.078125 2.703125 -2.859375 C 3.484375 -3.648438 3.972656 -4.160156 4.171875 -4.390625 C 4.554688 -4.804688 4.820312 -5.160156 4.96875 -5.453125 C 5.125 -5.753906 5.203125 -6.046875 5.203125 -6.328125 C 5.203125 -6.796875 5.035156 -7.175781 4.703125 -7.46875 C 4.378906 -7.757812 3.957031 -7.90625 3.4375 -7.90625 C 3.0625 -7.90625 2.664062 -7.84375 2.25 -7.71875 C 1.84375 -7.59375 1.40625 -7.394531 0.9375 -7.125 L 0.9375 -8.328125 C 1.414062 -8.515625 1.859375 -8.65625 2.265625 -8.75 C 2.679688 -8.851562 3.0625 -8.90625 3.40625 -8.90625 C 4.3125 -8.90625 5.035156 -8.675781 5.578125 -8.21875 C 6.117188 -7.769531 6.390625 -7.164062 6.390625 -6.40625 C 6.390625 -6.050781 6.320312 -5.710938 6.1875 -5.390625 C 6.050781 -5.066406 5.804688 -4.6875 5.453125 -4.25 C 5.347656 -4.132812 5.035156 -3.804688 4.515625 -3.265625 C 3.992188 -2.722656 3.253906 -1.96875 2.296875 -1 Z M 2.296875 -1 "/>
</symbol>
<symbol overflow="visible" id="zHmn1ICa8-0">
<path style="stroke:none;" d=""/>
</symbol>
<symbol overflow="visible" id="zHmn1ICa8-1">
<path style="stroke:none;" d="M 5.859375 -1.71875 C 5.859375 -1.84375 5.765625 -1.84375 5.671875 -1.84375 C 5.53125 -1.84375 5.515625 -1.828125 5.453125 -1.625 C 5.140625 -0.59375 4.53125 -0.125 4.03125 -0.125 C 3.796875 -0.125 3.46875 -0.28125 3.46875 -0.90625 C 3.46875 -1.1875 3.59375 -1.703125 3.703125 -2.109375 L 4.109375 -3.75 C 4.265625 -4.375 4.59375 -5.046875 5.15625 -5.046875 C 5.203125 -5.046875 5.5 -5.046875 5.6875 -4.875 C 5.203125 -4.75 5.203125 -4.296875 5.203125 -4.296875 C 5.203125 -4.140625 5.3125 -3.90625 5.625 -3.90625 C 5.84375 -3.90625 6.21875 -4.078125 6.21875 -4.546875 C 6.21875 -5.15625 5.515625 -5.296875 5.171875 -5.296875 C 4.515625 -5.296875 4.109375 -4.71875 4 -4.484375 C 3.734375 -5.203125 3.140625 -5.296875 2.84375 -5.296875 C 1.640625 -5.296875 1 -3.734375 1 -3.453125 C 1 -3.34375 1.109375 -3.34375 1.171875 -3.34375 C 1.328125 -3.34375 1.328125 -3.34375 1.390625 -3.546875 C 1.71875 -4.578125 2.34375 -5.046875 2.8125 -5.046875 C 3.171875 -5.046875 3.390625 -4.765625 3.390625 -4.28125 C 3.390625 -4 3.25 -3.40625 3.140625 -2.96875 L 2.875 -1.875 C 2.671875 -1.09375 2.421875 -0.125 1.703125 -0.125 C 1.671875 -0.125 1.375 -0.125 1.171875 -0.296875 C 1.53125 -0.390625 1.640625 -0.703125 1.640625 -0.875 C 1.640625 -1.1875 1.390625 -1.265625 1.234375 -1.265625 C 0.9375 -1.265625 0.640625 -1.015625 0.640625 -0.609375 C 0.640625 -0.140625 1.140625 0.125 1.6875 0.125 C 2.265625 0.125 2.65625 -0.328125 2.875 -0.6875 C 3.109375 0 3.703125 0.125 4.015625 0.125 C 5.25 0.125 5.859375 -1.46875 5.859375 -1.71875 Z M 5.859375 -1.71875 "/>
</symbol>
<symbol overflow="visible" id="zHmn1ICa9-0">
<path style="stroke:none;" d=""/>
</symbol>
<symbol overflow="visible" id="zHmn1ICa9-1">
<path style="stroke:none;" d="M 8.65625 -3 C 8.65625 -3.125 8.5625 -3.234375 8.421875 -3.234375 L 4.90625 -3.234375 L 4.90625 -6.75 C 4.90625 -6.890625 4.796875 -7 4.671875 -7 C 4.53125 -7 4.421875 -6.890625 4.421875 -6.75 L 4.421875 -3.234375 L 0.90625 -3.234375 C 0.78125 -3.234375 0.671875 -3.125 0.671875 -3 C 0.671875 -2.875 0.78125 -2.765625 0.90625 -2.765625 L 4.421875 -2.765625 L 4.421875 0.75 C 4.421875 0.890625 4.53125 1 4.671875 1 C 4.796875 1 4.90625 0.890625 4.90625 0.75 L 4.90625 -2.765625 L 8.421875 -2.765625 C 8.5625 -2.765625 8.65625 -2.875 8.65625 -3 Z M 8.65625 -3 "/>
</symbol>
<symbol overflow="visible" id="zHmn1ICa10-0">
<path style="stroke:none;" d=""/>
</symbol>
<symbol overflow="visible" id="zHmn1ICa10-1">
<path style="stroke:none;" d="M 4.984375 0.03125 L 6.15625 -4.6875 C 6.171875 -4.765625 6.1875 -4.828125 6.1875 -4.859375 C 6.1875 -4.984375 6.09375 -5.171875 5.859375 -5.171875 C 5.5 -5.171875 5.40625 -4.828125 5.390625 -4.734375 L 4.515625 -1.203125 C 4.421875 -0.859375 3.953125 -0.125 3.234375 -0.125 C 2.703125 -0.125 2.59375 -0.65625 2.59375 -1.0625 C 2.59375 -1.78125 2.984375 -2.875 3.28125 -3.6875 C 3.390625 -3.9375 3.4375 -4.109375 3.4375 -4.328125 C 3.4375 -4.9375 3.046875 -5.296875 2.53125 -5.296875 C 1.421875 -5.296875 1 -3.53125 1 -3.453125 C 1 -3.34375 1.109375 -3.34375 1.171875 -3.34375 C 1.328125 -3.34375 1.34375 -3.359375 1.390625 -3.53125 C 1.484375 -3.90625 1.8125 -5.046875 2.515625 -5.046875 C 2.640625 -5.046875 2.765625 -5 2.765625 -4.6875 C 2.765625 -4.40625 2.65625 -4.078125 2.484375 -3.609375 C 2.171875 -2.765625 1.859375 -1.890625 1.859375 -1.265625 C 1.859375 -0.21875 2.5625 0.125 3.203125 0.125 C 3.75 0.125 4.125 -0.15625 4.28125 -0.3125 C 3.828125 1.671875 2.9375 2.203125 2.34375 2.203125 C 1.765625 2.203125 1.59375 1.734375 1.59375 1.6875 C 1.59375 1.6875 1.609375 1.65625 1.6875 1.640625 C 2.0625 1.578125 2.203125 1.265625 2.203125 1.0625 C 2.203125 0.8125 2.015625 0.6875 1.796875 0.6875 C 1.65625 0.6875 1.1875 0.75 1.1875 1.421875 C 1.1875 2.046875 1.6875 2.453125 2.34375 2.453125 C 3.59375 2.453125 4.6875 1.21875 4.984375 0.03125 Z M 4.984375 0.03125 "/>
</symbol>
<symbol overflow="visible" id="zHmn1ICa11-0">
<path style="stroke:none;" d="M 0.59375 0 L 5.40625 0 L 5.40625 -6.4375 L 0.59375 -6.4375 Z M 1.203125 -0.59375 L 1.203125 -5.84375 L 4.796875 -5.84375 L 4.796875 -0.59375 Z M 1.203125 -0.59375 "/>
</symbol>
<symbol overflow="visible" id="zHmn1ICa11-1">
<path style="stroke:none;" d="M 4.3125 -1.53125 C 4.3125 -2.171875 3.953125 -2.53125 3.8125 -2.671875 C 3.421875 -3.0625 2.953125 -3.15625 2.453125 -3.25 C 1.78125 -3.390625 0.96875 -3.546875 0.96875 -4.234375 C 0.96875 -4.65625 1.28125 -5.140625 2.3125 -5.140625 C 3.640625 -5.140625 3.703125 -4.0625 3.71875 -3.703125 C 3.734375 -3.59375 3.859375 -3.59375 3.859375 -3.59375 C 4.015625 -3.59375 4.015625 -3.640625 4.015625 -3.875 L 4.015625 -5.09375 C 4.015625 -5.296875 4.015625 -5.375 3.890625 -5.375 C 3.828125 -5.375 3.796875 -5.375 3.640625 -5.234375 C 3.609375 -5.1875 3.484375 -5.078125 3.4375 -5.046875 C 2.984375 -5.375 2.5 -5.375 2.3125 -5.375 C 0.859375 -5.375 0.390625 -4.578125 0.390625 -3.90625 C 0.390625 -3.484375 0.59375 -3.140625 0.90625 -2.875 C 1.296875 -2.5625 1.625 -2.5 2.5 -2.328125 C 2.765625 -2.28125 3.75 -2.09375 3.75 -1.21875 C 3.75 -0.609375 3.328125 -0.125 2.390625 -0.125 C 1.375 -0.125 0.953125 -0.8125 0.71875 -1.84375 C 0.6875 -1.984375 0.671875 -2.046875 0.546875 -2.046875 C 0.390625 -2.046875 0.390625 -1.953125 0.390625 -1.734375 L 0.390625 -0.15625 C 0.390625 0.046875 0.390625 0.125 0.53125 0.125 C 0.59375 0.125 0.59375 0.125 0.828125 -0.109375 C 0.859375 -0.125 0.859375 -0.15625 1.0625 -0.390625 C 1.59375 0.125 2.140625 0.125 2.390625 0.125 C 3.765625 0.125 4.3125 -0.671875 4.3125 -1.53125 Z M 4.3125 -1.53125 "/>
</symbol>
<symbol overflow="visible" id="zHmn1ICa11-2">
<path style="stroke:none;" d="M 2.96875 0 L 2.96875 -0.375 C 2.171875 -0.375 2.125 -0.4375 2.125 -0.90625 L 2.125 -5.296875 L 0.4375 -5.171875 L 0.4375 -4.796875 C 1.21875 -4.796875 1.328125 -4.734375 1.328125 -4.140625 L 1.328125 -0.90625 C 1.328125 -0.375 1.203125 -0.375 0.390625 -0.375 L 0.390625 0 L 1.71875 -0.03125 C 2.140625 -0.03125 2.5625 -0.015625 2.96875 0 Z M 2.296875 -7.25 C 2.296875 -7.578125 2.03125 -7.890625 1.671875 -7.890625 C 1.265625 -7.890625 1.015625 -7.546875 1.015625 -7.25 C 1.015625 -6.921875 1.296875 -6.609375 1.65625 -6.609375 C 2.0625 -6.609375 2.296875 -6.953125 2.296875 -7.25 Z M 2.296875 -7.25 "/>
</symbol>
<symbol overflow="visible" id="zHmn1ICa11-3">
<path style="stroke:none;" d="M 3.96875 2.875 C 3.96875 2.84375 3.96875 2.8125 3.765625 2.609375 C 2.265625 1.109375 1.890625 -1.15625 1.890625 -3 C 1.890625 -5.09375 2.34375 -7.171875 3.8125 -8.671875 C 3.96875 -8.8125 3.96875 -8.84375 3.96875 -8.875 C 3.96875 -8.96875 3.921875 -9 3.859375 -9 C 3.734375 -9 2.65625 -8.1875 1.9375 -6.65625 C 1.328125 -5.34375 1.1875 -4.015625 1.1875 -3 C 1.1875 -2.0625 1.3125 -0.609375 1.984375 0.75 C 2.703125 2.21875 3.734375 3 3.859375 3 C 3.921875 3 3.96875 2.96875 3.96875 2.875 Z M 3.96875 2.875 "/>
</symbol>
<symbol overflow="visible" id="zHmn1ICa12-0">
<path style="stroke:none;" d="M 0.59375 0 L 5.40625 0 L 5.40625 -6.4375 L 0.59375 -6.4375 Z M 1.203125 -0.59375 L 1.203125 -5.84375 L 4.796875 -5.84375 L 4.796875 -0.59375 Z M 1.203125 -0.59375 "/>
</symbol>
<symbol overflow="visible" id="zHmn1ICa12-1">
<path style="stroke:none;" d="M 6.421875 0 L 6.421875 -0.375 C 5.796875 -0.375 5.5 -0.375 5.484375 -0.734375 L 5.484375 -3.03125 C 5.484375 -4.0625 5.484375 -4.421875 5.109375 -4.859375 C 4.9375 -5.0625 4.546875 -5.296875 3.859375 -5.296875 C 2.96875 -5.296875 2.40625 -4.78125 2.078125 -4.046875 L 2.078125 -5.296875 L 0.390625 -5.171875 L 0.390625 -4.796875 C 1.21875 -4.796875 1.3125 -4.71875 1.3125 -4.125 L 1.3125 -0.90625 C 1.3125 -0.375 1.1875 -0.375 0.390625 -0.375 L 0.390625 0 L 1.734375 -0.03125 L 3.078125 0 L 3.078125 -0.375 C 2.28125 -0.375 2.140625 -0.375 2.140625 -0.90625 L 2.140625 -3.125 C 2.140625 -4.375 3 -5.046875 3.765625 -5.046875 C 4.53125 -5.046875 4.65625 -4.390625 4.65625 -3.703125 L 4.65625 -0.90625 C 4.65625 -0.375 4.53125 -0.375 3.71875 -0.375 L 3.71875 0 L 5.078125 -0.03125 Z M 6.421875 0 "/>
</symbol>
<symbol overflow="visible" id="zHmn1ICa12-2">
<path style="stroke:none;" d="M 3.46875 -3 C 3.46875 -3.9375 3.34375 -5.390625 2.671875 -6.75 C 1.953125 -8.21875 0.921875 -9 0.796875 -9 C 0.734375 -9 0.6875 -8.953125 0.6875 -8.875 C 0.6875 -8.84375 0.6875 -8.8125 0.90625 -8.609375 C 2.09375 -7.421875 2.765625 -5.515625 2.765625 -3 C 2.765625 -0.953125 2.328125 1.15625 0.84375 2.671875 C 0.6875 2.8125 0.6875 2.84375 0.6875 2.875 C 0.6875 2.953125 0.734375 3 0.796875 3 C 0.921875 3 2 2.1875 2.71875 0.65625 C 3.328125 -0.65625 3.46875 -1.984375 3.46875 -3 Z M 3.46875 -3 "/>
</symbol>
<symbol overflow="visible" id="zHmn1ICa13-0">
<path style="stroke:none;" d=""/>
</symbol>
<symbol overflow="visible" id="zHmn1ICa13-1">
<path style="stroke:none;" d="M 5.8125 -1.71875 C 5.8125 -1.84375 5.71875 -1.84375 5.625 -1.84375 C 5.484375 -1.84375 5.46875 -1.828125 5.40625 -1.5625 C 5.25 -0.953125 5.015625 -0.125 4.484375 -0.125 C 4.15625 -0.125 4.140625 -0.40625 4.140625 -0.640625 C 4.140625 -0.921875 4.21875 -1.265625 4.234375 -1.3125 C 4.296875 -1.578125 4.296875 -1.578125 4.296875 -1.734375 C 4.296875 -2.5625 3.453125 -2.875 2.703125 -2.984375 C 2.96875 -3.15625 3.234375 -3.40625 3.546875 -3.78125 C 4.171875 -4.484375 4.640625 -5.046875 5.25 -5.046875 C 5.46875 -5.046875 5.5625 -4.890625 5.5625 -4.890625 C 5.0625 -4.8125 5 -4.390625 5 -4.296875 C 5 -4.140625 5.109375 -3.90625 5.421875 -3.90625 C 5.6875 -3.90625 6.03125 -4.125 6.03125 -4.578125 C 6.03125 -4.890625 5.8125 -5.296875 5.265625 -5.296875 C 4.625 -5.296875 4.109375 -4.796875 3.703125 -4.3125 C 3.03125 -3.53125 2.828125 -3.34375 2.40625 -3.125 L 3.640625 -8.03125 C 3.640625 -8.0625 3.671875 -8.1875 3.671875 -8.1875 C 3.671875 -8.296875 3.59375 -8.328125 3.5 -8.328125 C 3.46875 -8.328125 3.34375 -8.3125 3.3125 -8.296875 L 2.125 -8.203125 C 1.984375 -8.203125 1.84375 -8.1875 1.84375 -7.953125 C 1.84375 -7.828125 1.96875 -7.828125 2.140625 -7.828125 C 2.71875 -7.828125 2.734375 -7.734375 2.734375 -7.625 C 2.734375 -7.578125 2.703125 -7.421875 2.703125 -7.421875 L 0.921875 -0.34375 C 0.90625 -0.3125 0.90625 -0.1875 0.90625 -0.1875 C 0.90625 -0.046875 1.015625 0.125 1.234375 0.125 C 1.59375 0.125 1.6875 -0.203125 1.703125 -0.3125 L 2.3125 -2.75 C 2.765625 -2.6875 3.53125 -2.4375 3.53125 -1.734375 C 3.53125 -1.65625 3.53125 -1.609375 3.484375 -1.4375 C 3.4375 -1.234375 3.4375 -1.15625 3.4375 -1.03125 C 3.4375 -0.171875 4.015625 0.125 4.453125 0.125 C 4.984375 0.125 5.25 -0.265625 5.375 -0.484375 C 5.640625 -0.953125 5.8125 -1.6875 5.8125 -1.71875 Z M 5.8125 -1.71875 "/>
</symbol>
<symbol overflow="visible" id="zHmn1ICa14-0">
<path style="stroke:none;" d="M 0.359375 0 L 3.234375 0 L 3.234375 -3.875 L 0.359375 -3.875 Z M 0.71875 -0.359375 L 0.71875 -3.515625 L 2.875 -3.515625 L 2.875 -0.359375 Z M 0.71875 -0.359375 "/>
</symbol>
<symbol overflow="visible" id="zHmn1ICa14-1">
<path style="stroke:none;" d="M 3.234375 -1.25 L 3.046875 -1.25 C 3.015625 -1.03125 2.96875 -0.71875 2.890625 -0.609375 C 2.84375 -0.546875 2.375 -0.546875 2.21875 -0.546875 L 0.921875 -0.546875 L 1.671875 -1.296875 C 2.796875 -2.296875 3.234375 -2.671875 3.234375 -3.40625 C 3.234375 -4.21875 2.578125 -4.796875 1.703125 -4.796875 C 0.890625 -4.796875 0.359375 -4.140625 0.359375 -3.5 C 0.359375 -3.09375 0.71875 -3.09375 0.734375 -3.09375 C 0.859375 -3.09375 1.109375 -3.171875 1.109375 -3.46875 C 1.109375 -3.65625 0.984375 -3.84375 0.734375 -3.84375 C 0.671875 -3.84375 0.65625 -3.84375 0.640625 -3.84375 C 0.8125 -4.3125 1.203125 -4.578125 1.609375 -4.578125 C 2.265625 -4.578125 2.578125 -3.984375 2.578125 -3.40625 C 2.578125 -2.828125 2.21875 -2.25 1.828125 -1.8125 L 0.4375 -0.265625 C 0.359375 -0.1875 0.359375 -0.171875 0.359375 0 L 3.03125 0 Z M 3.234375 -1.25 "/>
</symbol>
</g>
</defs>
<g id="surface1">
<rect x="0" y="0" width="600" height="450" style="fill:rgb(100%,100%,100%);fill-opacity:1;stroke:none;"/>
<path style=" stroke:none;fill-rule:nonzero;fill:rgb(100%,100%,100%);fill-opacity:1;" d="M 30 417.75 L 588 417.75 L 588 51.75 L 30 51.75 Z M 30 417.75 "/>
<path style="fill:none;stroke-width:1;stroke-linecap:butt;stroke-linejoin:miter;stroke:rgb(0%,0%,0%);stroke-opacity:0.12;stroke-miterlimit:10;" d="M 146.78125 557 L 146.78125 69 " transform="matrix(0.75,0,0,0.75,0,0)"/>
<path style="fill:none;stroke-width:1;stroke-linecap:butt;stroke-linejoin:miter;stroke:rgb(0%,0%,0%);stroke-opacity:0.12;stroke-miterlimit:10;" d="M 296.234375 557 L 296.234375 69 " transform="matrix(0.75,0,0,0.75,0,0)"/>
<path style="fill:none;stroke-width:1;stroke-linecap:butt;stroke-linejoin:miter;stroke:rgb(0%,0%,0%);stroke-opacity:0.12;stroke-miterlimit:10;" d="M 445.682292 557 L 445.682292 69 " transform="matrix(0.75,0,0,0.75,0,0)"/>
<path style="fill:none;stroke-width:1;stroke-linecap:butt;stroke-linejoin:miter;stroke:rgb(0%,0%,0%);stroke-opacity:0.12;stroke-miterlimit:10;" d="M 595.130208 557 L 595.130208 69 " transform="matrix(0.75,0,0,0.75,0,0)"/>
<path style="fill:none;stroke-width:1;stroke-linecap:butt;stroke-linejoin:miter;stroke:rgb(0%,0%,0%);stroke-opacity:0.12;stroke-miterlimit:10;" d="M 744.583333 557 L 744.583333 69 " transform="matrix(0.75,0,0,0.75,0,0)"/>
<path style="fill:none;stroke-width:1;stroke-linecap:butt;stroke-linejoin:miter;stroke:rgb(0%,0%,0%);stroke-opacity:0.12;stroke-miterlimit:10;" d="M 40 440.619792 L 784 440.619792 " transform="matrix(0.75,0,0,0.75,0,0)"/>
<path style="fill:none;stroke-width:1;stroke-linecap:butt;stroke-linejoin:miter;stroke:rgb(0%,0%,0%);stroke-opacity:0.12;stroke-miterlimit:10;" d="M 40 320.859375 L 784 320.859375 " transform="matrix(0.75,0,0,0.75,0,0)"/>
<path style="fill:none;stroke-width:1;stroke-linecap:butt;stroke-linejoin:miter;stroke:rgb(0%,0%,0%);stroke-opacity:0.12;stroke-miterlimit:10;" d="M 40 201.098958 L 784 201.098958 " transform="matrix(0.75,0,0,0.75,0,0)"/>
<path style="fill:none;stroke-width:1;stroke-linecap:butt;stroke-linejoin:miter;stroke:rgb(0%,0%,0%);stroke-opacity:0.12;stroke-miterlimit:10;" d="M 40 81.338542 L 784 81.338542 " transform="matrix(0.75,0,0,0.75,0,0)"/>
<g style="fill:rgb(0%,0%,0%);fill-opacity:1;">
  <use xlink:href="#zHmn1ICa0-1" x="104.851562" y="435.640625"/>
</g>
<g style="fill:rgb(0%,0%,0%);fill-opacity:1;">
  <use xlink:href="#zHmn1ICa1-1" x="109.179688" y="435.640625"/>
</g>
<g style="fill:rgb(0%,0%,0%);fill-opacity:1;">
  <use xlink:href="#zHmn1ICa1-2" x="217.113281" y="435.640625"/>
</g>
<g style="fill:rgb(0%,0%,0%);fill-opacity:1;">
  <use xlink:href="#zHmn1ICa2-1" x="221.441406" y="435.640625"/>
</g>
<g style="fill:rgb(0%,0%,0%);fill-opacity:1;">
  <use xlink:href="#zHmn1ICa3-1" x="330.84375" y="435.640625"/>
</g>
<g style="fill:rgb(0%,0%,0%);fill-opacity:1;">
  <use xlink:href="#zHmn1ICa1-3" x="443.085938" y="435.640625"/>
</g>
<g style="fill:rgb(0%,0%,0%);fill-opacity:1;">
  <use xlink:href="#zHmn1ICa4-1" x="555.21875" y="435.640625"/>
</g>
<g style="fill:rgb(0%,0%,0%);fill-opacity:1;">
  <use xlink:href="#zHmn1ICa5-1" x="12.210938" y="334.617188"/>
</g>
<g style="fill:rgb(0%,0%,0%);fill-opacity:1;">
  <use xlink:href="#zHmn1ICa0-2" x="16.542969" y="334.617188"/>
</g>
<g style="fill:rgb(0%,0%,0%);fill-opacity:1;">
  <use xlink:href="#zHmn1ICa6-1" x="15.703125" y="244.796875"/>
</g>
<g style="fill:rgb(0%,0%,0%);fill-opacity:1;">
  <use xlink:href="#zHmn1ICa7-1" x="16.542969" y="154.976562"/>
</g>
<g style="fill:rgb(0%,0%,0%);fill-opacity:1;">
  <use xlink:href="#zHmn1ICa7-2" x="16.195312" y="65.15625"/>
</g>
<g style="fill:rgb(0%,0%,0%);fill-opacity:1;">
  <use xlink:href="#zHmn1ICa8-1" x="297.664062" y="25.667969"/>
</g>
<g style="fill:rgb(0%,0%,0%);fill-opacity:1;">
  <use xlink:href="#zHmn1ICa9-1" x="305.632812" y="25.667969"/>
</g>
<g style="fill:rgb(0%,0%,0%);fill-opacity:1;">
  <use xlink:href="#zHmn1ICa10-1" x="317.367188" y="25.667969"/>
</g>
<g style="fill:rgb(0%,0%,0%);fill-opacity:1;">
  <use xlink:href="#zHmn1ICa11-1" x="294.496094" y="45.269531"/>
</g>
<g style="fill:rgb(0%,0%,0%);fill-opacity:1;">
  <use xlink:href="#zHmn1ICa11-2" x="299.222656" y="45.269531"/>
</g>
<g style="fill:rgb(0%,0%,0%);fill-opacity:1;">
  <use xlink:href="#zHmn1ICa12-1" x="302.558594" y="45.269531"/>
</g>
<g style="fill:rgb(0%,0%,0%);fill-opacity:1;">
  <use xlink:href="#zHmn1ICa11-3" x="309.230469" y="45.269531"/>
</g>
<g style="fill:rgb(0%,0%,0%);fill-opacity:1;">
  <use xlink:href="#zHmn1ICa13-1" x="313.898438" y="45.269531"/>
</g>
<g style="fill:rgb(0%,0%,0%);fill-opacity:1;">
  <use xlink:href="#zHmn1ICa14-1" x="319.417969" y="38.09375"/>
</g>
<g style="fill:rgb(0%,0%,0%);fill-opacity:1;">
  <use xlink:href="#zHmn1ICa12-2" x="323.019531" y="45.269531"/>
</g>
<path style="fill:none;stroke-width:0.64;stroke-linecap:round;stroke-linejoin:miter;stroke:rgb(0%,0%,0%);stroke-opacity:1;stroke-miterlimit:10;" d="M 390.9375 40.947917 L 436.510417 40.947917 " transform="matrix(0.75,0,0,0.75,0,0)"/>
<path style=" stroke:none;fill-rule:nonzero;fill:rgb(0%,44.705883%,69.803923%);fill-opacity:1;" d="M 376.117188 251.9375 C 376.117188 256.4375 369.367188 256.4375 369.367188 251.9375 C 369.367188 247.4375 376.117188 247.4375 376.117188 251.9375 "/>
<path style=" stroke:none;fill-rule:nonzero;fill:rgb(0%,44.705883%,69.803923%);fill-opacity:1;" d="M 58.738281 370.152344 C 58.738281 374.652344 51.988281 374.652344 51.988281 370.152344 C 51.988281 365.652344 58.738281 365.652344 58.738281 370.152344 "/>
<path style=" stroke:none;fill-rule:nonzero;fill:rgb(0%,44.705883%,69.803923%);fill-opacity:1;" d="M 362.980469 311.445312 C 362.980469 315.945312 356.230469 315.945312 356.230469 311.445312 C 356.230469 306.945312 362.980469 306.945312 362.980469 311.445312 "/>
<path style=" stroke:none;fill-rule:nonzero;fill:rgb(0%,44.705883%,69.803923%);fill-opacity:1;" d="M 264.742188 263.949219 C 264.742188 268.449219 257.992188 268.449219 257.992188 263.949219 C 257.992188 259.449219 264.742188 259.449219 264.742188 263.949219 "/>
<path style=" stroke:none;fill-rule:nonzero;fill:rgb(0%,44.705883%,69.803923%);fill-opacity:1;" d="M 398.929688 287.617188 C 398.929688 292.117188 392.179688 292.117188 392.179688 287.617188 C 392.179688 283.117188 398.929688 283.117188 398.929688 287.617188 "/>
<path style=" stroke:none;fill-rule:nonzero;fill:rgb(0%,44.705883%,69.803923%);fill-opacity:1;" d="M 211.011719 200.53125 C 211.011719 205.03125 204.261719 205.03125 204.261719 200.53125 C 204.261719 196.03125 211.011719 196.03125 211.011719 200.53125 "/>
<path style=" stroke:none;fill-rule:nonzero;fill:rgb(0%,44.705883%,69.803923%);fill-opacity:1;" d="M 426.171875 237.730469 C 426.171875 242.230469 419.421875 242.230469 419.421875 237.730469 C 419.421875 233.230469 426.171875 233.230469 426.171875 237.730469 "/>
<path style=" stroke:none;fill-rule:nonzero;fill:rgb(0%,44.705883%,69.803923%);fill-opacity:1;" d="M 269.066406 238.617188 C 269.066406 243.117188 262.316406 243.117188 262.316406 238.617188 C 262.316406 234.117188 269.066406 234.117188 269.066406 238.617188 "/>
<path style=" stroke:none;fill-rule:nonzero;fill:rgb(0%,44.705883%,69.803923%);fill-opacity:1;" d="M 269.578125 145.441406 C 269.578125 149.941406 262.828125 149.941406 262.828125 145.441406 C 262.828125 140.941406 269.578125 140.941406 269.578125 145.441406 "/>
<path style=" stroke:none;fill-rule:nonzero;fill:rgb(0%,44.705883%,69.803923%);fill-opacity:1;" d="M 457.125 181.972656 C 457.125 186.472656 450.375 186.472656 450.375 181.972656 C 450.375 177.472656 457.125 177.472656 457.125 181.972656 "/>
<path style=" stroke:none;fill-rule:nonzero;fill:rgb(0%,44.705883%,69.803923%);fill-opacity:1;" d="M 431.113281 165.410156 C 431.113281 169.910156 424.363281 169.910156 424.363281 165.410156 C 424.363281 160.910156 431.113281 160.910156 431.113281 165.410156 "/>
<path style=" stroke:none;fill-rule:nonzero;fill:rgb(0%,44.705883%,69.803923%);fill-opacity:1;" d="M 228.433594 68.386719 C 228.433594 72.886719 221.683594 72.886719 221.683594 68.386719 C 221.683594 63.886719 228.433594 63.886719 228.433594 68.386719 "/>
<path style=" stroke:none;fill-rule:nonzero;fill:rgb(0%,44.705883%,69.803923%);fill-opacity:1;" d="M 411.308594 240.726562 C 411.308594 245.226562 404.558594 245.226562 404.558594 240.726562 C 404.558594 236.226562 411.308594 236.226562 411.308594 240.726562 "/>
<path style=" stroke:none;fill-rule:nonzero;fill:rgb(0%,44.705883%,69.803923%);fill-opacity:1;" d="M 364.289062 235.964844 C 364.289062 240.464844 357.539062 240.464844 357.539062 235.964844 C 357.539062 231.464844 364.289062 231.464844 364.289062 235.964844 "/>
<path style=" stroke:none;fill-rule:nonzero;fill:rgb(0%,44.705883%,69.803923%);fill-opacity:1;" d="M 239.796875 369.128906 C 239.796875 373.628906 233.046875 373.628906 233.046875 369.128906 C 233.046875 364.628906 239.796875 364.628906 239.796875 369.128906 "/>
<path style=" stroke:none;fill-rule:nonzero;fill:rgb(0%,44.705883%,69.803923%);fill-opacity:1;" d="M 393.605469 248.871094 C 393.605469 253.371094 386.855469 253.371094 386.855469 248.871094 C 386.855469 244.371094 393.605469 244.371094 393.605469 248.871094 "/>
<path style=" stroke:none;fill-rule:nonzero;fill:rgb(0%,44.705883%,69.803923%);fill-opacity:1;" d="M 331.550781 249.5 C 331.550781 254 324.800781 254 324.800781 249.5 C 324.800781 245 331.550781 245 331.550781 249.5 "/>
<path style=" stroke:none;fill-rule:nonzero;fill:rgb(0%,44.705883%,69.803923%);fill-opacity:1;" d="M 243.339844 87.246094 C 243.339844 91.746094 236.589844 91.746094 236.589844 87.246094 C 236.589844 82.746094 243.339844 82.746094 243.339844 87.246094 "/>
<path style=" stroke:none;fill-rule:nonzero;fill:rgb(0%,44.705883%,69.803923%);fill-opacity:1;" d="M 421.847656 159.332031 C 421.847656 163.832031 415.097656 163.832031 415.097656 159.332031 C 415.097656 154.832031 421.847656 154.832031 421.847656 159.332031 "/>
<path style=" stroke:none;fill-rule:nonzero;fill:rgb(0%,44.705883%,69.803923%);fill-opacity:1;" d="M 566.011719 269.878906 C 566.011719 274.378906 559.261719 274.378906 559.261719 269.878906 C 559.261719 265.378906 566.011719 265.378906 566.011719 269.878906 "/>
<path style=" stroke:none;fill-rule:nonzero;fill:rgb(0%,44.705883%,69.803923%);fill-opacity:1;" d="M 292.242188 401.113281 C 292.242188 405.613281 285.492188 405.613281 285.492188 401.113281 C 285.492188 396.613281 292.242188 396.613281 292.242188 401.113281 "/>
<path style=" stroke:none;fill-rule:nonzero;fill:rgb(0%,44.705883%,69.803923%);fill-opacity:1;" d="M 413.695312 203.988281 C 413.695312 208.488281 406.945312 208.488281 406.945312 203.988281 C 406.945312 199.488281 413.695312 199.488281 413.695312 203.988281 "/>
<path style=" stroke:none;fill-rule:nonzero;fill:rgb(0%,44.705883%,69.803923%);fill-opacity:1;" d="M 398.882812 345.464844 C 398.882812 349.964844 392.132812 349.964844 392.132812 345.464844 C 392.132812 340.964844 398.882812 340.964844 398.882812 345.464844 "/>
<path style=" stroke:none;fill-rule:nonzero;fill:rgb(0%,44.705883%,69.803923%);fill-opacity:1;" d="M 276.410156 292.113281 C 276.410156 296.613281 269.660156 296.613281 269.660156 292.113281 C 269.660156 287.613281 276.410156 287.613281 276.410156 292.113281 "/>
<path style=" stroke:none;fill-rule:nonzero;fill:rgb(0%,44.705883%,69.803923%);fill-opacity:1;" d="M 165.101562 164.027344 C 165.101562 168.527344 158.351562 168.527344 158.351562 164.027344 C 158.351562 159.527344 165.101562 159.527344 165.101562 164.027344 "/>
<path style=" stroke:none;fill-rule:nonzero;fill:rgb(0%,44.705883%,69.803923%);fill-opacity:1;" d="M 416.609375 379.433594 C 416.609375 383.933594 409.859375 383.933594 409.859375 379.433594 C 409.859375 374.933594 416.609375 374.933594 416.609375 379.433594 "/>
<path style=" stroke:none;fill-rule:nonzero;fill:rgb(0%,44.705883%,69.803923%);fill-opacity:1;" d="M 296.929688 340.167969 C 296.929688 344.667969 290.179688 344.667969 290.179688 340.167969 C 290.179688 335.667969 296.929688 335.667969 296.929688 340.167969 "/>
<path style=" stroke:none;fill-rule:nonzero;fill:rgb(0%,44.705883%,69.803923%);fill-opacity:1;" d="M 457.003906 191.839844 C 457.003906 196.339844 450.253906 196.339844 450.253906 191.839844 C 450.253906 187.339844 457.003906 187.339844 457.003906 191.839844 "/>
<path style=" stroke:none;fill-rule:nonzero;fill:rgb(0%,44.705883%,69.803923%);fill-opacity:1;" d="M 316.039062 204.867188 C 316.039062 209.367188 309.289062 209.367188 309.289062 204.867188 C 309.289062 200.367188 316.039062 200.367188 316.039062 204.867188 "/>
<path style=" stroke:none;fill-rule:nonzero;fill:rgb(0%,44.705883%,69.803923%);fill-opacity:1;" d="M 341.742188 290.242188 C 341.742188 294.742188 334.992188 294.742188 334.992188 290.242188 C 334.992188 285.742188 341.742188 285.742188 341.742188 290.242188 "/>
<path style=" stroke:none;fill-rule:nonzero;fill:rgb(0%,44.705883%,69.803923%);fill-opacity:1;" d="M 430.839844 244.632812 C 430.839844 249.132812 424.089844 249.132812 424.089844 244.632812 C 424.089844 240.132812 430.839844 240.132812 430.839844 244.632812 "/>
<path style=" stroke:none;fill-rule:nonzero;fill:rgb(0%,44.705883%,69.803923%);fill-opacity:1;" d="M 322.078125 252.089844 C 322.078125 256.589844 315.328125 256.589844 315.328125 252.089844 C 315.328125 247.589844 322.078125 247.589844 322.078125 252.089844 "/>
<path style=" stroke:none;fill-rule:nonzero;fill:rgb(0%,44.705883%,69.803923%);fill-opacity:1;" d="M 380.113281 306.8125 C 380.113281 311.3125 373.363281 311.3125 373.363281 306.8125 C 373.363281 302.3125 380.113281 302.3125 380.113281 306.8125 "/>
<path style=" stroke:none;fill-rule:nonzero;fill:rgb(0%,44.705883%,69.803923%);fill-opacity:1;" d="M 335.175781 310.972656 C 335.175781 315.472656 328.425781 315.472656 328.425781 310.972656 C 328.425781 306.472656 335.175781 306.472656 335.175781 310.972656 "/>
<path style=" stroke:none;fill-rule:nonzero;fill:rgb(0%,44.705883%,69.803923%);fill-opacity:1;" d="M 471.988281 213.910156 C 471.988281 218.410156 465.238281 218.410156 465.238281 213.910156 C 465.238281 209.410156 471.988281 209.410156 471.988281 213.910156 "/>
<path style=" stroke:none;fill-rule:nonzero;fill:rgb(0%,44.705883%,69.803923%);fill-opacity:1;" d="M 297.753906 234.945312 C 297.753906 239.445312 291.003906 239.445312 291.003906 234.945312 C 291.003906 230.445312 297.753906 230.445312 297.753906 234.945312 "/>
<path style=" stroke:none;fill-rule:nonzero;fill:rgb(0%,44.705883%,69.803923%);fill-opacity:1;" d="M 452.027344 295.488281 C 452.027344 299.988281 445.277344 299.988281 445.277344 295.488281 C 445.277344 290.988281 452.027344 290.988281 452.027344 295.488281 "/>
<path style=" stroke:none;fill-rule:nonzero;fill:rgb(0%,44.705883%,69.803923%);fill-opacity:1;" d="M 291.664062 223.113281 C 291.664062 227.613281 284.914062 227.613281 284.914062 223.113281 C 284.914062 218.613281 291.664062 218.613281 291.664062 223.113281 "/>
<path style=" stroke:none;fill-rule:nonzero;fill:rgb(0%,44.705883%,69.803923%);fill-opacity:1;" d="M 449.8125 375.042969 C 449.8125 379.542969 443.0625 379.542969 443.0625 375.042969 C 443.0625 370.542969 449.8125 370.542969 449.8125 375.042969 "/>
<path style=" stroke:none;fill-rule:nonzero;fill:rgb(0%,44.705883%,69.803923%);fill-opacity:1;" d="M 230.746094 322.425781 C 230.746094 326.925781 223.996094 326.925781 223.996094 322.425781 C 223.996094 317.925781 230.746094 317.925781 230.746094 322.425781 "/>
<path style=" stroke:none;fill-rule:nonzero;fill:rgb(0%,44.705883%,69.803923%);fill-opacity:1;" d="M 261.683594 302.8125 C 261.683594 307.3125 254.933594 307.3125 254.933594 302.8125 C 254.933594 298.3125 261.683594 298.3125 261.683594 302.8125 "/>
<path style=" stroke:none;fill-rule:nonzero;fill:rgb(0%,44.705883%,69.803923%);fill-opacity:1;" d="M 514.507812 119.40625 C 514.507812 123.90625 507.757812 123.90625 507.757812 119.40625 C 507.757812 114.90625 514.507812 114.90625 514.507812 119.40625 "/>
<path style=" stroke:none;fill-rule:nonzero;fill:rgb(0%,44.705883%,69.803923%);fill-opacity:1;" d="M 253.089844 253.453125 C 253.089844 257.953125 246.339844 257.953125 246.339844 253.453125 C 246.339844 248.953125 253.089844 248.953125 253.089844 253.453125 "/>
<path style=" stroke:none;fill-rule:nonzero;fill:rgb(0%,44.705883%,69.803923%);fill-opacity:1;" d="M 337.003906 307.207031 C 337.003906 311.707031 330.253906 311.707031 330.253906 307.207031 C 330.253906 302.707031 337.003906 302.707031 337.003906 307.207031 "/>
<path style=" stroke:none;fill-rule:nonzero;fill:rgb(0%,44.705883%,69.803923%);fill-opacity:1;" d="M 290.113281 127.585938 C 290.113281 132.085938 283.363281 132.085938 283.363281 127.585938 C 283.363281 123.085938 290.113281 123.085938 290.113281 127.585938 "/>
<path style=" stroke:none;fill-rule:nonzero;fill:rgb(0%,44.705883%,69.803923%);fill-opacity:1;" d="M 237.65625 186.917969 C 237.65625 191.417969 230.90625 191.417969 230.90625 186.917969 C 230.90625 182.417969 237.65625 182.417969 237.65625 186.917969 "/>
<path style=" stroke:none;fill-rule:nonzero;fill:rgb(0%,44.705883%,69.803923%);fill-opacity:1;" d="M 302.636719 278.710938 C 302.636719 283.210938 295.886719 283.210938 295.886719 278.710938 C 295.886719 274.210938 302.636719 274.210938 302.636719 278.710938 "/>
<path style=" stroke:none;fill-rule:nonzero;fill:rgb(0%,44.705883%,69.803923%);fill-opacity:1;" d="M 332.597656 218.199219 C 332.597656 222.699219 325.847656 222.699219 325.847656 218.199219 C 325.847656 213.699219 332.597656 213.699219 332.597656 218.199219 "/>
<path style=" stroke:none;fill-rule:nonzero;fill:rgb(0%,44.705883%,69.803923%);fill-opacity:1;" d="M 216.46875 329.054688 C 216.46875 333.554688 209.71875 333.554688 209.71875 329.054688 C 209.71875 324.554688 216.46875 324.554688 216.46875 329.054688 "/>
<path style=" stroke:none;fill-rule:nonzero;fill:rgb(0%,44.705883%,69.803923%);fill-opacity:1;" d="M 360.335938 126.765625 C 360.335938 131.265625 353.585938 131.265625 353.585938 126.765625 C 353.585938 122.265625 360.335938 122.265625 360.335938 126.765625 "/>
<path style="fill:none;stroke-width:1;stroke-linecap:butt;stroke-linejoin:miter;stroke:rgb(0%,0%,0%);stroke-opacity:1;stroke-miterlimit:10;" d="M 146.78125 557.5 L 146.78125 563.5 " transform="matrix(0.75,0,0,0.75,0,0)"/>
<path style="fill:none;stroke-width:1;stroke-linecap:butt;stroke-linejoin:miter;stroke:rgb(0%,0%,0%);stroke-opacity:1;stroke-miterlimit:10;" d="M 296.234375 557.5 L 296.234375 563.5 " transform="matrix(0.75,0,0,0.75,0,0)"/>
<path style="fill:none;stroke-width:1;stroke-linecap:butt;stroke-linejoin:miter;stroke:rgb(0%,0%,0%);stroke-opacity:1;stroke-miterlimit:10;" d="M 445.682292 557.5 L 445.682292 563.5 " transform="matrix(0.75,0,0,0.75,0,0)"/>
<path style="fill:none;stroke-width:1;stroke-linecap:butt;stroke-linejoin:miter;stroke:rgb(0%,0%,0%);stroke-opacity:1;stroke-miterlimit:10;" d="M 595.130208 557.5 L 595.130208 563.5 " transform="matrix(0.75,0,0,0.75,0,0)"/>
<path style="fill:none;stroke-width:1;stroke-linecap:butt;stroke-linejoin:miter;stroke:rgb(0%,0%,0%);stroke-opacity:1;stroke-miterlimit:10;" d="M 744.583333 557.5 L 744.583333 563.5 " transform="matrix(0.75,0,0,0.75,0,0)"/>
<path style="fill:none;stroke-width:1;stroke-linecap:butt;stroke-linejoin:miter;stroke:rgb(0%,0%,0%);stroke-opacity:1;stroke-miterlimit:10;" d="M 39.5 440.619792 L 33.5 440.619792 " transform="matrix(0.75,0,0,0.75,0,0)"/>
<path style="fill:none;stroke-width:1;stroke-linecap:butt;stroke-linejoin:miter;stroke:rgb(0%,0%,0%);stroke-opacity:1;stroke-miterlimit:10;" d="M 39.5 320.859375 L 33.5 320.859375 " transform="matrix(0.75,0,0,0.75,0,0)"/>
<path style="fill:none;stroke-width:1;stroke-linecap:butt;stroke-linejoin:miter;stroke:rgb(0%,0%,0%);stroke-opacity:1;stroke-miterlimit:10;" d="M 39.5 201.098958 L 33.5 201.098958 " transform="matrix(0.75,0,0,0.75,0,0)"/>
<path style="fill:none;stroke-width:1;stroke-linecap:butt;stroke-linejoin:miter;stroke:rgb(0%,0%,0%);stroke-opacity:1;stroke-miterlimit:10;" d="M 39.5 81.338542 L 33.5 81.338542 " transform="matrix(0.75,0,0,0.75,0,0)"/>
<path style="fill:none;stroke-width:1;stroke-linecap:butt;stroke-linejoin:miter;stroke:rgb(0%,0%,0%);stroke-opacity:1;stroke-miterlimit:10;" d="M 39.5 557 L 784.5 557 " transform="matrix(0.75,0,0,0.75,0,0)"/>
<path style="fill:none;stroke-width:1;stroke-linecap:butt;stroke-linejoin:miter;stroke:rgb(0%,0%,0%);stroke-opacity:1;stroke-miterlimit:10;" d="M 40 557.5 L 40 68.5 " transform="matrix(0.75,0,0,0.75,0,0)"/>
<path style="fill:none;stroke-width:1;stroke-linecap:butt;stroke-linejoin:miter;stroke:rgb(0%,0%,0%);stroke-opacity:1;stroke-miterlimit:10;" d="M 39.5 69 L 784.5 69 " transform="matrix(0.75,0,0,0.75,0,0)"/>
<path style="fill:none;stroke-width:1;stroke-linecap:butt;stroke-linejoin:miter;stroke:rgb(0%,0%,0%);stroke-opacity:1;stroke-miterlimit:10;" d="M 784 557.5 L 784 68.5 " transform="matrix(0.75,0,0,0.75,0,0)"/>
</g>
</svg>
